HIERARCHY
ROOT joint_Root
{
	OFFSET 0.0 0.0 0.0
	CHANNELS 6 Xposition Yposition Zposition Zrotation Xrotation Yrotation 
	JOINT Hips
	{
		OFFSET 4.5925 91.4895 -427.239
		CHANNELS 6 Xposition Yposition Zposition Zrotation Xrotation Yrotation 
		JOINT Spine
		{
			OFFSET 15.7357 0.0 0.0
			CHANNELS 6 Xposition Yposition Zposition Zrotation Xrotation Yrotation 
			JOINT Chest
			{
				OFFSET 8.98455 -0.406207 0.0
				CHANNELS 6 Xposition Yposition Zposition Zrotation Xrotation Yrotation 
				JOINT Neck
				{
					OFFSET 16.3773 0.0 0.0
					CHANNELS 6 Xposition Yposition Zposition Zrotation Xrotation Yrotation 
					JOINT Head
					{
						OFFSET 6.45672 0.0 0.0
						CHANNELS 6 Xposition Yposition Zposition Zrotation Xrotation Yrotation 
						End Site
						{
							OFFSET 0.0 0.0 0.0
						}
					}
				}
				JOINT Shoulder_L
				{
					OFFSET 12.9942 -0.242716 4.98039
					CHANNELS 6 Xposition Yposition Zposition Zrotation Xrotation Yrotation 
					JOINT UpperArm_L
					{
						OFFSET 5.34809 0.0 0.0
						CHANNELS 6 Xposition Yposition Zposition Zrotation Xrotation Yrotation 
						JOINT LowerArm_L
						{
							OFFSET 24.3286 1.87007e-05 0.0
							CHANNELS 6 Xposition Yposition Zposition Zrotation Xrotation Yrotation 
							JOINT Hand_L
							{
								OFFSET 22.2916 0.0 0.0
								CHANNELS 6 Xposition Yposition Zposition Zrotation Xrotation Yrotation 
								End Site
								{
									OFFSET 0.0 0.0 0.0
								}
							}
						}
					}
				}
				JOINT Shoulder_R
				{
					OFFSET 12.9945 -0.242716 -4.98039
					CHANNELS 6 Xposition Yposition Zposition Zrotation Xrotation Yrotation 
					JOINT UpperArm_R
					{
						OFFSET -5.34813 0.0 0.0
						CHANNELS 6 Xposition Yposition Zposition Zrotation Xrotation Yrotation 
						JOINT LowerArm_R
						{
							OFFSET -24.3289 0.000322201 0.0
							CHANNELS 6 Xposition Yposition Zposition Zrotation Xrotation Yrotation 
							JOINT Hand_R
							{
								OFFSET -22.2915 -0.000108084 0.0
								CHANNELS 6 Xposition Yposition Zposition Zrotation Xrotation Yrotation 
								End Site
								{
									OFFSET 0.0 0.0 0.0
								}
							}
						}
					}
				}
			}
		}
		JOINT UpperLeg_L
		{
			OFFSET -2.19248 -6.46944 0.0
			CHANNELS 6 Xposition Yposition Zposition Zrotation Xrotation Yrotation 
			JOINT LowerLeg_L
			{
				OFFSET 39.0811 0.0 -1.23785e-05
				CHANNELS 6 Xposition Yposition Zposition Zrotation Xrotation Yrotation 
				JOINT Foot_L
				{
					OFFSET 40.9854 0.0 -1.26872e-05
					CHANNELS 6 Xposition Yposition Zposition Zrotation Xrotation Yrotation 
					JOINT Toes_L
					{
						OFFSET 11.7543 0.0 0.0
						CHANNELS 6 Xposition Yposition Zposition Zrotation Xrotation Yrotation 
						End Site
						{
							OFFSET 0.0 0.0 0.0
						}
					}
				}
			}
		}
		JOINT UpperLeg_R
		{
			OFFSET -2.19251 6.46944 0.0
			CHANNELS 6 Xposition Yposition Zposition Zrotation Xrotation Yrotation 
			JOINT LowerLeg_R
			{
				OFFSET -39.0811 -0.00228153 -0.0401928
				CHANNELS 6 Xposition Yposition Zposition Zrotation Xrotation Yrotation 
				JOINT Foot_R
				{
					OFFSET -40.9854 0.0 0.0
					CHANNELS 6 Xposition Yposition Zposition Zrotation Xrotation Yrotation 
					JOINT Toes_R
					{
						OFFSET -11.7543 0.0 0.0
						CHANNELS 6 Xposition Yposition Zposition Zrotation Xrotation Yrotation 
						End Site
						{
							OFFSET 0.0 0.0 0.0
						}
					}
				}
			}
		}
	}
}
MOTION
Frames:	5
Frame Time:	0.0333333
0.000000 0.000000 0.000000 0.000000 0.000000 -0.000000 -0.186134 83.088200 -1.199530 90.074900 -3.957320 10.430300 15.735700 0.000005 -0.000001 89.483000 81.239300 -89.708600 8.984550 -0.406207 -0.000000 9.754350 -0.161041 -0.437052 16.377300 -0.000001 -0.000001 -3.727000 -2.254430 1.032390 6.456720 -0.000001 -0.000000 -5.652010 -1.594000 2.688870 12.994200 -0.242716 4.980390 -90.837600 2.566590 -71.918500 5.348090 -0.000007 -0.000001 -65.230100 19.593600 -14.993500 24.328600 0.000019 0.000005 6.967120 20.785800 -19.001000 22.291600 -0.000001 0.000005 8.416840 5.263350 1.077220 12.994500 -0.242716 -4.980390 88.740600 6.758820 -79.419600 -5.348130 -0.000001 -0.000004 -55.261700 29.478900 -21.430700 -24.328900 0.000322 -0.000009 0.620365 2.449810 -14.239700 -22.291500 -0.000108 -0.000004 -15.195100 5.229030 1.984690 -2.192480 -6.469440 -0.000000 -175.777000 -10.645100 -14.502400 39.081100 -0.000007 -0.000012 -0.556675 0.327778 59.511100 40.985400 -0.000006 -0.000013 -0.342550 1.355240 -84.403200 11.754300 -0.000000 0.000003 -0.000357 -0.003006 -16.688900 -2.192510 6.469440 -0.000001 176.196000 10.825500 165.913000 -39.081100 -0.002282 -0.040193 0.082952 -0.045794 60.135600 -40.985400 0.000008 0.000006 6.265110 2.680460 -85.067300 -11.754300 -0.000006 -0.000006 -0.782135 -0.963507 -17.009700
0.000000 0.000000 0.000000 0.000000 0.000000 -0.000000 -0.246198 85.081400 -0.417067 90.177600 -2.744610 10.201900 15.735700 0.000005 -0.000001 87.613800 82.355000 -87.889100 8.984550 -0.406207 -0.000000 7.509610 -0.633536 -0.508424 16.377300 -0.000001 -0.000001 -1.546080 -2.248050 0.962831 6.456720 -0.000001 -0.000000 -3.277000 -1.540420 2.338440 12.994200 -0.242716 4.980390 -90.185300 0.551891 -71.439100 5.348090 -0.000007 -0.000001 -61.907800 2.849130 -19.110200 24.328600 0.000019 0.000005 3.860150 18.439800 -12.041600 22.291600 -0.000001 0.000005 13.118500 5.128070 4.460820 12.994500 -0.242716 -4.980390 89.089000 4.483610 -78.502800 -5.348130 -0.000001 -0.000004 -53.578100 14.555200 -24.474900 -24.328900 0.000322 -0.000009 0.592088 6.892770 -4.931800 -22.291500 -0.000108 -0.000004 -25.930300 4.996420 7.395280 -2.192480 -6.469440 -0.000000 -175.938000 -10.088000 -11.216700 39.081100 -0.000007 -0.000012 -0.458545 0.342029 53.281800 40.985400 -0.000006 -0.000013 -0.171520 2.026100 -81.739600 11.754300 -0.000000 0.000003 -0.000319 -0.002735 -16.679300 -2.192510 6.469440 -0.000001 176.043000 11.172700 169.386000 -39.081100 -0.002282 -0.040193 0.073434 -0.050887 54.063800 -40.985400 0.000008 0.000006 5.769720 2.370150 -82.369700 -11.754300 -0.000006 -0.000006 -0.806234 -0.990611 -17.237900
0.000000 0.000000 0.000000 0.000000 0.000000 -0.000000 -0.264924 87.290200 0.356347 90.450800 -2.022480 9.727250 15.735700 0.000005 -0.000001 87.003600 83.657300 -87.378700 8.984550 -0.406207 -0.000000 4.900150 -0.652428 -0.721552 16.377300 -0.000001 -0.000001 1.447710 -2.383750 0.774377 6.456720 -0.000001 -0.000000 -0.960186 -1.731420 2.304420 12.994200 -0.242716 4.980390 -89.292200 -2.041030 -70.869000 5.348090 -0.000007 -0.000001 -57.924100 -14.057900 -26.587300 24.328600 0.000019 0.000005 3.017940 19.087900 -9.158240 22.291600 -0.000001 0.000005 17.386000 4.967870 7.994330 12.994500 -0.242716 -4.980390 89.471200 2.334030 -77.231700 -5.348130 -0.000001 -0.000004 -51.057300 -5.526480 -30.554200 -24.328900 0.000322 -0.000009 -0.001079 10.618000 0.000043 -22.291500 -0.000108 -0.000004 -14.816800 4.941920 8.531430 -2.192480 -6.469440 -0.000000 -176.210000 -10.177500 -7.295380 39.081100 -0.000007 -0.000012 -0.353684 0.348690 45.408200 40.985400 -0.000006 -0.000013 -0.049203 2.782690 -78.281100 11.754300 -0.000000 0.000003 -0.000232 -0.002100 -16.656400 -2.192510 6.469440 -0.000001 175.621000 11.781500 173.108000 -39.081100 -0.002282 -0.040193 0.057839 -0.051347 46.748400 -40.985400 0.000008 0.000006 5.442610 2.890790 -78.719200 -11.754300 -0.000006 -0.000006 -0.870538 -1.063180 -17.703200
0.000000 0.000000 0.000000 0.000000 0.000000 -0.000000 -0.246462 88.988300 0.706837 90.508900 -1.622110 7.701880 15.735700 0.000005 -0.000001 86.268300 85.233600 -86.638300 8.984550 -0.406207 -0.000000 1.744830 -0.600642 -0.730129 16.377300 -0.000001 -0.000001 3.678740 -2.427430 0.603211 6.456720 -0.000001 -0.000000 0.698216 -1.818860 2.254870 12.994200 -0.242716 4.980390 -88.561900 -4.131770 -70.789900 5.348090 -0.000007 -0.000001 -55.477700 -30.888100 -37.107200 24.328600 0.000019 0.000005 2.897070 14.508900 -11.420800 22.291600 -0.000001 0.000005 17.229200 4.974640 7.852880 12.994500 -0.242716 -4.980390 89.952000 0.206829 -76.948400 -5.348130 -0.000001 -0.000004 -46.769100 -21.974600 -37.928500 -24.328900 0.000322 -0.000009 -0.001357 6.468480 0.000022 -22.291500 -0.000108 -0.000004 -1.245500 5.002150 7.278530 -2.192480 -6.469440 -0.000000 -176.511000 -10.824200 -5.764270 39.081100 -0.000007 -0.000012 -0.272964 0.342240 38.575700 40.985400 -0.000006 -0.000013 0.110732 3.700090 -75.019600 11.754300 -0.000000 0.000003 -0.000141 -0.001381 -16.630100 -2.192510 6.469440 -0.000001 175.617000 13.271900 174.396000 -39.081100 -0.002282 -0.040193 0.045537 -0.049525 40.473900 -40.985400 0.000008 0.000006 5.538860 4.151220 -75.323700 -11.754300 -0.000006 -0.000006 -0.882456 -1.070120 -18.189000
0.000000 0.000000 0.000000 0.000000 0.000000 -0.000000 -0.273694 90.021400 0.823362 90.306300 -1.326810 5.669000 15.735700 0.000005 -0.000001 84.588500 86.412900 -84.900400 8.984550 -0.406207 -0.000000 -0.625479 -0.653608 -0.627058 16.377300 -0.000001 -0.000001 4.247110 -2.401700 0.573805 6.456720 -0.000001 -0.000000 1.361360 -1.621080 2.198980 12.994200 -0.242716 4.980390 -87.913700 -6.349170 -71.767300 5.348090 -0.000007 -0.000001 -48.957200 -42.402800 -44.714700 24.328600 0.000019 0.000005 2.376040 6.605310 -19.841300 22.291600 -0.000001 0.000005 13.773500 5.205120 2.587910 12.994500 -0.242716 -4.980390 90.534400 -2.387660 -77.380900 -5.348130 -0.000001 -0.000004 -41.211800 -34.368200 -43.299700 -24.328900 0.000322 -0.000009 -0.554936 -2.741940 -11.387700 -22.291500 -0.000108 -0.000004 9.781490 5.263200 1.096560 -2.192480 -6.469440 -0.000000 -176.644000 -10.975300 -5.511250 39.081100 -0.000007 -0.000012 -0.228428 0.339065 33.968500 40.985400 -0.000006 -0.000013 0.071319 4.162600 -72.727000 11.754300 -0.000000 0.000003 -0.000118 -0.001185 -16.622900 -2.192510 6.469440 -0.000001 175.982000 14.882500 174.823000 -39.081100 -0.002282 -0.040193 0.036960 -0.046749 35.763100 -40.985400 0.000008 0.000006 5.670720 5.648790 -73.266900 -11.754300 -0.000006 -0.000006 -0.702306 -0.854586 -18.199400
